<svg width="195" height="69" viewBox="0 0 195 69" fill="none" xmlns="http://www.w3.org/2000/svg">
<path d="M0 34.5002C0 15.4463 15.4463 0 34.5002 0L58.5458 0C64.3197 0 69.0004 4.68069 69.0004 10.4546V34.5002C69.0004 53.5542 53.5542 69.0004 34.5002 69.0004C15.4463 69.0004 0 53.5542 0 34.5002Z" fill="#000D33" style="fill:#000D33;fill:color(display-p3 0.0000 0.0498 0.2000);fill-opacity:1;"/>
<path opacity="0.5" d="M46.5153 37.3846L46.9893 38.3473C47.2262 38.8212 47.8335 39.2656 48.337 39.3544L48.9739 39.4581C50.9141 39.7839 51.3584 41.2058 49.981 42.598L49.3886 43.1904C48.9887 43.5903 48.7814 44.3604 48.8998 44.9232L48.9739 45.2787C49.5071 47.6188 48.263 48.5222 46.2339 47.293L45.8044 47.0264C45.286 46.7153 44.427 46.7153 43.9086 47.0264L43.4791 47.293C41.4353 48.5222 40.206 47.6188 40.7391 45.2787L40.8132 44.9232C40.9317 44.3752 40.7243 43.5903 40.3244 43.1904L39.732 42.598C38.3546 41.1909 38.7989 39.7839 40.7391 39.4581L41.376 39.3544C41.8944 39.2656 42.4868 38.8212 42.7238 38.3473L43.1977 37.3846C44.116 35.5333 45.5971 35.5333 46.5153 37.3846Z" fill="white" style="fill:white;fill-opacity:1;"/>
<path d="M42.1758 18.2197H29.7644C24.3733 18.2197 21.1594 21.4336 21.1594 26.8247V39.2361C21.1594 44.6272 24.3733 47.8411 29.7644 47.8411H37.5845C38.1029 47.8411 38.4731 47.3079 38.4139 46.7896C38.3546 46.2268 38.3843 45.5603 38.562 44.7901C38.5916 44.6864 38.562 44.568 38.4731 44.4791L38.1473 44.1533C36.8884 42.8795 36.4293 41.3392 36.8736 39.9322C37.3327 38.54 38.6064 37.5625 40.3689 37.2663L40.8132 37.1922L41.2131 36.3925C42.0277 34.7337 43.3607 33.771 44.8565 33.771C46.3524 33.771 47.6854 34.7337 48.5 36.3925L48.7221 36.8516C48.8258 37.0737 49.0332 37.2218 49.2701 37.2663C49.4034 37.2959 49.5367 37.3255 49.67 37.3551C50.1884 37.4884 50.7808 37.0737 50.7808 36.5257V26.8247C50.7808 21.4336 47.5669 18.2197 42.1758 18.2197ZM42.2795 28.528L38.8582 32.9416C38.4287 33.4896 37.8215 33.845 37.1254 33.9191C36.4441 34.0079 35.748 33.8154 35.2148 33.3859L32.5044 31.2828C32.4007 31.1939 32.2823 31.1939 32.223 31.2087C32.1638 31.2087 32.0601 31.2383 31.9712 31.3568L28.4463 35.9333C28.2241 36.2147 27.8983 36.3628 27.5576 36.3628C27.3207 36.3628 27.0837 36.2888 26.8764 36.1259C26.3876 35.7556 26.2987 35.0595 26.669 34.5707L30.1939 29.9942C30.6235 29.4462 31.2307 29.0908 31.9268 29.0019C32.6229 28.913 33.3042 29.1056 33.8522 29.5351L36.5625 31.6678C36.6662 31.7567 36.7699 31.7419 36.844 31.7419C36.9032 31.7419 37.0069 31.7123 37.0957 31.5938L40.517 27.1802C40.8873 26.6914 41.5834 26.6026 42.0721 26.9877C42.5757 27.3579 42.6497 28.054 42.2795 28.528Z" fill="white" style="fill:white;fill-opacity:1;"/>
<path d="M87.0571 36.269V15.6369H95.3099C96.8239 15.6369 98.0886 15.8631 99.104 16.3154C100.119 16.7678 100.881 17.3909 101.389 18.1848C101.906 18.9787 102.164 19.8926 102.164 20.9265C102.164 21.7296 101.998 22.4358 101.666 23.0451C101.343 23.6544 100.9 24.1529 100.336 24.5406C99.7825 24.9283 99.1456 25.2006 98.4255 25.3576V25.5653C99.2102 25.6022 99.9487 25.8238 100.641 26.2299C101.333 26.6361 101.892 27.2085 102.317 27.947C102.75 28.6762 102.967 29.5486 102.967 30.5641C102.967 31.6534 102.695 32.6319 102.15 33.4996C101.615 34.3582 100.821 35.0367 99.7687 35.5351C98.7163 36.0244 97.4147 36.269 95.8638 36.269H87.0571ZM91.4051 32.7104H94.9776C96.1869 32.7104 97.0685 32.475 97.6224 32.0042C98.1855 31.5334 98.4671 30.9102 98.4671 30.1348C98.4671 29.5625 98.3286 29.0593 98.0517 28.6255C97.7839 28.1824 97.3962 27.8362 96.8885 27.5869C96.3808 27.3377 95.7761 27.2131 95.0745 27.2131H91.4051V32.7104ZM91.4051 24.2775H94.6453C95.2453 24.2775 95.7761 24.1713 96.2377 23.959C96.7085 23.7467 97.0777 23.4467 97.3455 23.059C97.6132 22.662 97.747 22.1912 97.747 21.6466C97.747 20.9081 97.4839 20.3126 96.9577 19.8603C96.4408 19.3987 95.6977 19.1679 94.7284 19.1679H91.4051V24.2775ZM109.074 15.6369V36.269H104.795V15.6369H109.074ZM121.522 29.6917V20.788H125.801V36.269H121.689V33.4581H121.522C121.172 34.3535 120.595 35.0828 119.792 35.6459C118.988 36.1998 118.005 36.4721 116.842 36.4629C115.808 36.4629 114.894 36.2321 114.1 35.7705C113.316 35.2997 112.702 34.6305 112.259 33.7627C111.825 32.895 111.608 31.8565 111.608 30.6471V20.788H115.887V29.8994C115.887 30.8041 116.131 31.5241 116.621 32.0595C117.11 32.5857 117.761 32.8442 118.573 32.835C119.09 32.835 119.57 32.7196 120.013 32.4888C120.456 32.2488 120.816 31.8934 121.093 31.4226C121.379 30.9518 121.522 30.3748 121.522 29.6917ZM135.383 36.5737C133.795 36.5737 132.425 36.2506 131.271 35.6044C130.117 34.9582 129.231 34.0397 128.612 32.8488C128.003 31.6487 127.698 30.2317 127.698 28.5978C127.698 27.01 128.003 25.616 128.612 24.416C129.231 23.2159 130.098 22.2789 131.215 21.605C132.342 20.9311 133.662 20.5942 135.176 20.5942C136.2 20.5942 137.156 20.7603 138.042 21.0927C138.928 21.4158 139.704 21.905 140.368 22.5605C141.033 23.2067 141.55 24.0236 141.919 25.0114C142.288 25.9899 142.473 27.1392 142.473 28.4593V29.6225H129.401V26.9777H140.396L138.402 27.67C138.402 26.8854 138.282 26.2022 138.042 25.6207C137.802 25.0391 137.442 24.5914 136.962 24.2775C136.491 23.9544 135.905 23.7929 135.203 23.7929C134.502 23.7929 133.906 23.9544 133.417 24.2775C132.937 24.6006 132.568 25.0391 132.309 25.593C132.051 26.1469 131.922 26.7838 131.922 27.5039V29.3732C131.922 30.2133 132.069 30.9333 132.365 31.5334C132.66 32.1242 133.071 32.5811 133.597 32.9042C134.132 33.2181 134.746 33.375 135.439 33.375C135.919 33.375 136.353 33.3058 136.74 33.1673C137.128 33.0288 137.46 32.8257 137.737 32.558C138.023 32.2903 138.236 31.9672 138.374 31.5887L142.335 31.8518C142.141 32.8027 141.734 33.6335 141.116 34.3443C140.507 35.0459 139.717 35.5952 138.748 35.9921C137.779 36.3798 136.657 36.5737 135.383 36.5737ZM144.384 36.269V15.6369H152.512C154.072 15.6369 155.402 15.937 156.5 16.537C157.608 17.1278 158.452 17.9494 159.034 19.0018C159.625 20.0541 159.92 21.2681 159.92 22.6435C159.92 24.0098 159.625 25.2145 159.034 26.2576C158.443 27.3008 157.585 28.1177 156.459 28.7086C155.342 29.2901 153.989 29.5809 152.401 29.5809H147.223V26.0915H151.695C152.535 26.0915 153.228 25.9438 153.772 25.6484C154.326 25.353 154.737 24.9468 155.005 24.4298C155.282 23.9129 155.42 23.3174 155.42 22.6435C155.42 21.9512 155.282 21.3512 155.005 20.8434C154.737 20.3265 154.326 19.9249 153.772 19.6387C153.218 19.3526 152.521 19.2095 151.681 19.2095H148.732V36.269H144.384ZM161.762 36.269V20.788H166.041V36.269H161.762ZM163.894 18.8079C163.257 18.8079 162.713 18.5956 162.26 18.171C161.808 17.7463 161.582 17.234 161.582 16.6339C161.582 16.0339 161.808 15.5262 162.26 15.1108C162.713 14.6861 163.257 14.4738 163.894 14.4738C164.541 14.4738 165.09 14.6861 165.542 15.1108C165.995 15.5262 166.221 16.0339 166.221 16.6339C166.221 17.234 165.995 17.7463 165.542 18.171C165.09 18.5956 164.541 18.8079 163.894 18.8079ZM172.853 15.6369V36.269H168.575V15.6369H172.853ZM182.352 36.5737C180.792 36.5737 179.44 36.2413 178.295 35.5767C177.16 34.9028 176.283 33.9704 175.664 32.7796C175.055 31.5795 174.75 30.1856 174.75 28.5978C174.75 26.9915 175.055 25.593 175.664 24.4021C176.283 23.202 177.16 22.2697 178.295 21.605C179.44 20.9311 180.792 20.5942 182.352 20.5942C183.922 20.5942 185.274 20.9311 186.41 21.605C187.554 22.2697 188.431 23.202 189.041 24.4021C189.659 25.593 189.968 26.9915 189.968 28.5978C189.968 30.1856 189.659 31.5795 189.041 32.7796C188.431 33.9704 187.554 34.9028 186.41 35.5767C185.274 36.2413 183.922 36.5737 182.352 36.5737ZM182.38 33.2227C183.091 33.2227 183.686 33.0242 184.166 32.6273C184.646 32.2211 185.006 31.6672 185.247 30.9656C185.496 30.264 185.62 29.4655 185.62 28.5701C185.62 27.6654 185.496 26.8669 185.247 26.1745C185.006 25.4822 184.646 24.9375 184.166 24.5406C183.686 24.1436 183.091 23.9452 182.38 23.9452C181.66 23.9452 181.055 24.1436 180.566 24.5406C180.086 24.9375 179.722 25.4822 179.472 26.1745C179.232 26.8669 179.112 27.6654 179.112 28.5701C179.112 29.4655 179.232 30.264 179.472 30.9656C179.722 31.6672 180.086 32.2211 180.566 32.6273C181.055 33.0242 181.66 33.2227 182.38 33.2227Z" fill="#000D33" style="fill:#000D33;fill:color(display-p3 0.0000 0.0498 0.2000);fill-opacity:1;"/>
<path d="M88.0964 42.5721C88.2468 42.5721 88.3784 42.6285 88.4911 42.7413C88.6165 42.8541 88.6791 42.9919 88.6791 43.1548V55.1482C88.6666 55.3111 88.5977 55.449 88.4723 55.5618C88.3596 55.6746 88.228 55.731 88.0776 55.731C87.9021 55.731 87.758 55.6746 87.6452 55.5618C87.545 55.449 87.4948 55.3111 87.4948 55.1482V43.1548C87.4948 42.9919 87.5512 42.8541 87.664 42.7413C87.7768 42.6285 87.9209 42.5721 88.0964 42.5721ZM96.9128 42.5721C97.0883 42.5721 97.2261 42.6285 97.3264 42.7413C97.4392 42.8541 97.4956 42.9919 97.4956 43.1548V55.1482C97.483 55.3111 97.4204 55.449 97.3076 55.5618C97.2073 55.6746 97.0695 55.731 96.894 55.731C96.7311 55.731 96.5933 55.6746 96.4805 55.5618C96.3677 55.449 96.3113 55.3111 96.3113 55.1482V43.1548C96.3113 42.9919 96.3677 42.8541 96.4805 42.7413C96.6058 42.6285 96.7499 42.5721 96.9128 42.5721ZM88.0024 48.456H96.9316L96.9128 49.5463H87.9272L88.0024 48.456ZM107.905 45.9558C108.068 45.9558 108.199 46.0122 108.3 46.125C108.412 46.2378 108.469 46.3694 108.469 46.5197V54.8098C108.469 55.8249 108.268 56.6771 107.867 57.3664C107.466 58.0682 106.927 58.5946 106.25 58.9455C105.574 59.3089 104.803 59.4906 103.938 59.4906C103.399 59.4906 102.898 59.428 102.434 59.3027C101.983 59.1899 101.614 59.0395 101.325 58.8515C101.175 58.7638 101.062 58.6572 100.987 58.5319C100.912 58.4066 100.905 58.275 100.968 58.1372C101.031 57.9617 101.125 57.8426 101.25 57.78C101.388 57.7299 101.526 57.7361 101.664 57.7988C101.877 57.9116 102.184 58.0494 102.585 58.2123C102.986 58.3753 103.443 58.4567 103.957 58.4567C104.646 58.4567 105.242 58.3126 105.743 58.0244C106.257 57.7361 106.652 57.3163 106.927 56.7649C107.203 56.226 107.341 55.5806 107.341 54.8286V53.4752L107.472 53.9263C107.284 54.3148 107.015 54.6594 106.664 54.9602C106.326 55.261 105.931 55.4991 105.48 55.6746C105.041 55.8375 104.571 55.9189 104.07 55.9189C103.318 55.9189 102.691 55.7686 102.19 55.4678C101.701 55.1545 101.338 54.7284 101.1 54.1895C100.862 53.6506 100.743 53.0177 100.743 52.2909V46.5197C100.743 46.3694 100.793 46.2378 100.893 46.125C100.993 46.0122 101.131 45.9558 101.307 45.9558C101.469 45.9558 101.601 46.0122 101.701 46.125C101.814 46.2378 101.87 46.3694 101.87 46.5197V52.1217C101.87 52.9989 102.058 53.6757 102.434 54.1519C102.823 54.6281 103.45 54.8662 104.314 54.8662C104.853 54.8662 105.348 54.7409 105.799 54.4903C106.25 54.2271 106.62 53.8887 106.908 53.4752C107.197 53.0491 107.341 52.5979 107.341 52.1217V46.5197C107.341 46.3694 107.391 46.2378 107.491 46.125C107.604 46.0122 107.742 45.9558 107.905 45.9558ZM115.995 45.8994C116.847 45.8994 117.599 46.1124 118.251 46.5385C118.915 46.9646 119.441 47.5537 119.83 48.3056C120.218 49.045 120.412 49.9035 120.412 50.881C120.412 51.8334 120.218 52.6919 119.83 53.4564C119.441 54.2208 118.915 54.8224 118.251 55.261C117.586 55.6996 116.841 55.9189 116.014 55.9189C115.575 55.9189 115.155 55.85 114.754 55.7122C114.366 55.5743 114.008 55.3926 113.683 55.167C113.357 54.9289 113.069 54.6532 112.818 54.3399C112.567 54.0266 112.367 53.6882 112.216 53.3248L112.555 53.0804V55.2046C112.555 55.3675 112.498 55.5054 112.386 55.6182C112.285 55.7184 112.154 55.7686 111.991 55.7686C111.828 55.7686 111.69 55.7184 111.577 55.6182C111.477 55.5054 111.427 55.3675 111.427 55.2046V42.4029C111.427 42.24 111.477 42.1084 111.577 42.0081C111.677 41.8953 111.815 41.8389 111.991 41.8389C112.154 41.8389 112.285 41.8953 112.386 42.0081C112.498 42.1084 112.555 42.24 112.555 42.4029V48.7004L112.292 48.55C112.417 48.1615 112.599 47.8106 112.837 47.4973C113.087 47.1714 113.376 46.8894 113.701 46.6513C114.027 46.4132 114.384 46.2315 114.773 46.1062C115.161 45.9683 115.569 45.8994 115.995 45.8994ZM115.901 46.9521C115.224 46.9521 114.629 47.1213 114.115 47.4597C113.601 47.798 113.194 48.2617 112.893 48.8507C112.605 49.4398 112.461 50.1165 112.461 50.881C112.461 51.6329 112.605 52.3159 112.893 52.93C113.194 53.5315 113.601 54.0078 114.115 54.3587C114.629 54.697 115.224 54.8662 115.901 54.8662C116.565 54.8662 117.148 54.6908 117.649 54.3399C118.163 53.989 118.57 53.5127 118.871 52.9112C119.172 52.2971 119.322 51.6204 119.322 50.881C119.322 50.1165 119.172 49.4398 118.871 48.8507C118.57 48.2617 118.163 47.798 117.649 47.4597C117.148 47.1213 116.565 46.9521 115.901 46.9521ZM123.391 55.731C123.215 55.731 123.078 55.6746 122.977 55.5618C122.877 55.449 122.827 55.3174 122.827 55.167V46.7453C122.827 46.5949 122.877 46.4634 122.977 46.3506C123.09 46.2378 123.228 46.1814 123.391 46.1814C123.554 46.1814 123.685 46.2378 123.786 46.3506C123.898 46.4634 123.955 46.5949 123.955 46.7453V49.5651L123.673 49.6215C123.711 49.1829 123.817 48.7505 123.992 48.3244C124.18 47.8858 124.431 47.4847 124.744 47.1213C125.058 46.7579 125.427 46.4634 125.854 46.2378C126.292 46.0122 126.781 45.8994 127.32 45.8994C127.545 45.8994 127.765 45.9495 127.978 46.0498C128.191 46.1375 128.297 46.2879 128.297 46.5009C128.297 46.6889 128.247 46.8331 128.147 46.9333C128.047 47.0336 127.928 47.0837 127.79 47.0837C127.677 47.0837 127.552 47.0524 127.414 46.9897C127.288 46.927 127.119 46.8957 126.906 46.8957C126.555 46.8957 126.204 47.0022 125.854 47.2153C125.503 47.4158 125.183 47.6915 124.895 48.0424C124.607 48.3933 124.375 48.7881 124.199 49.2267C124.036 49.6528 123.955 50.0852 123.955 50.5238V55.167C123.955 55.3174 123.898 55.449 123.786 55.5618C123.673 55.6746 123.541 55.731 123.391 55.731ZM131.15 55.167C131.15 55.3174 131.094 55.449 130.981 55.5618C130.868 55.6746 130.737 55.731 130.586 55.731C130.423 55.731 130.286 55.6746 130.173 55.5618C130.072 55.449 130.022 55.3174 130.022 55.167V46.5197C130.022 46.3694 130.072 46.2378 130.173 46.125C130.286 46.0122 130.423 45.9558 130.586 45.9558C130.749 45.9558 130.881 46.0122 130.981 46.125C131.094 46.2378 131.15 46.3694 131.15 46.5197V55.167ZM130.586 44.6963C130.323 44.6963 130.123 44.6399 129.985 44.5271C129.859 44.4018 129.797 44.2263 129.797 44.0008V43.8128C129.797 43.5872 129.866 43.418 130.004 43.3052C130.154 43.1799 130.354 43.1172 130.605 43.1172C130.843 43.1172 131.025 43.1799 131.15 43.3052C131.288 43.418 131.357 43.5872 131.357 43.8128V44.0008C131.357 44.2263 131.288 44.4018 131.15 44.5271C131.025 44.6399 130.837 44.6963 130.586 44.6963ZM141.957 41.8202C142.12 41.8202 142.251 41.8765 142.352 41.9893C142.464 42.0896 142.521 42.2212 142.521 42.3841V55.167C142.521 55.3174 142.464 55.449 142.352 55.5618C142.239 55.6746 142.107 55.731 141.957 55.731C141.794 55.731 141.656 55.6746 141.543 55.5618C141.443 55.449 141.393 55.3174 141.393 55.167V52.93L141.712 52.6668C141.712 53.0177 141.618 53.3874 141.43 53.7759C141.242 54.1519 140.973 54.5028 140.622 54.8286C140.284 55.1545 139.883 55.4177 139.419 55.6182C138.968 55.8187 138.479 55.9189 137.953 55.9189C137.113 55.9189 136.355 55.6996 135.678 55.261C135.014 54.8224 134.488 54.2271 134.099 53.4752C133.711 52.7232 133.516 51.8648 133.516 50.8998C133.516 49.9473 133.711 49.0951 134.099 48.3432C134.488 47.5787 135.014 46.9834 135.678 46.5573C136.342 46.1187 137.094 45.8994 137.934 45.8994C138.448 45.8994 138.937 45.9934 139.4 46.1814C139.864 46.3694 140.271 46.6263 140.622 46.9521C140.986 47.2779 141.268 47.6539 141.468 48.08C141.681 48.4936 141.788 48.9259 141.788 49.3771L141.393 49.0951V42.3841C141.393 42.2337 141.443 42.1021 141.543 41.9893C141.656 41.8765 141.794 41.8202 141.957 41.8202ZM138.047 54.8662C138.724 54.8662 139.313 54.697 139.814 54.3587C140.328 54.0078 140.729 53.5378 141.017 52.9488C141.318 52.3472 141.468 51.6642 141.468 50.8998C141.468 50.1478 141.318 49.4774 141.017 48.8883C140.729 48.2868 140.328 47.8168 139.814 47.4785C139.3 47.1276 138.711 46.9521 138.047 46.9521C137.395 46.9521 136.806 47.1276 136.28 47.4785C135.766 47.8168 135.359 48.2868 135.058 48.8883C134.77 49.4774 134.625 50.1478 134.625 50.8998C134.625 51.6517 134.77 52.3284 135.058 52.93C135.359 53.5315 135.766 54.0078 136.28 54.3587C136.806 54.697 137.395 54.8662 138.047 54.8662Z" fill="#000D33" style="fill:#000D33;fill:color(display-p3 0.0000 0.0498 0.2000);fill-opacity:1;"/>
</svg>
