<svg width="27" height="26" viewBox="0 0 27 26" fill="none" xmlns="http://www.w3.org/2000/svg">
<path d="M17.8644 7.37469H17.8744M21.6144 7.37469H21.6244M25.9994 7.10344C25.9994 10.4059 23.2006 13.0834 19.7494 13.0834C19.3427 13.0834 18.9398 13.0459 18.5406 12.9709C18.2531 12.9172 18.1094 12.8909 18.0094 12.9059C17.9094 12.9209 17.7669 12.9959 17.4844 13.1472C16.6756 13.5783 15.7447 13.7232 14.8431 13.5584C15.1878 13.1326 15.4214 12.628 15.5231 12.0897C15.5856 11.7584 15.4306 11.4372 15.1981 11.2022C14.1134 10.1135 13.5028 8.6403 13.4994 7.10344C13.4994 3.80219 16.2981 1.12469 19.7494 1.12469C23.2006 1.12469 25.9994 3.80219 25.9994 7.10344ZM7.87688 24.8747H4.39688C3.99313 24.8747 3.58688 24.8172 3.21563 24.6584C2.00813 24.1397 1.39438 23.4534 1.10938 23.0247C1.03203 22.9059 0.994031 22.7658 1.00076 22.6243C1.00749 22.4827 1.05861 22.3468 1.14688 22.2359C2.54688 20.3759 5.79688 19.2534 7.88313 19.2534C9.96813 19.2534 13.2131 20.3759 14.6131 22.2359C14.7894 22.4697 14.8131 22.7809 14.6506 23.0247C14.3644 23.4534 13.7506 24.1397 12.5431 24.6584C12.168 24.8094 11.7662 24.883 11.3619 24.8747H7.87688ZM11.3569 12.7359C11.3562 13.1916 11.2658 13.6427 11.0908 14.0635C10.9158 14.4842 10.6597 14.8664 10.337 15.1881C10.0143 15.5099 9.63143 15.7649 9.21017 15.9387C8.78892 16.1125 8.33757 16.2016 7.88188 16.2009C6.96201 16.2016 6.07952 15.837 5.42837 15.1873C4.77722 14.5375 4.41071 13.6558 4.40938 12.7359C4.40987 12.2803 4.50011 11.8291 4.67495 11.4083C4.84979 10.9875 5.1058 10.6053 5.42837 10.2834C5.75094 9.96151 6.13375 9.70633 6.55493 9.5324C6.97612 9.35847 7.42744 9.2692 7.88313 9.26969C8.33882 9.2692 8.79014 9.35847 9.21133 9.5324C9.63252 9.70633 10.0153 9.96151 10.3379 10.2834C10.6605 10.6053 10.9165 10.9875 11.0913 11.4083C11.2661 11.8291 11.3564 12.2803 11.3569 12.7359Z" stroke="#090909" stroke-width="1.5" stroke-linecap="round" stroke-linejoin="round"/>
</svg>
