<svg width="31" height="30" viewBox="0 0 31 30" fill="none" xmlns="http://www.w3.org/2000/svg">
<g clip-path="url(#clip0_7814_6757)">
<path d="M30.0253 3.82264C30.6628 1.07264 25.389 -0.576115 22.7278 0.186385C20.6528 0.836385 20.0278 2.38639 20.6028 3.68514C20.4052 4.37957 20.4263 5.11803 20.6634 5.8C20.9005 6.48197 21.342 7.07431 21.9278 7.49639C22.9735 8.15904 24.1892 8.50355 25.427 8.48802C26.6649 8.47248 27.8716 8.09757 28.9003 7.40889C28.815 7.71998 28.6681 8.0108 28.4685 8.26415C28.2688 8.5175 28.0203 8.72823 27.7378 8.88389C27.2353 9.27514 26.6628 9.56764 26.0503 9.74514C25.9508 9.7584 25.8607 9.81062 25.7998 9.89033C25.7388 9.97003 25.712 10.0707 25.7253 10.1701C25.7385 10.2696 25.7908 10.3597 25.8705 10.4207C25.9502 10.4816 26.0508 10.5084 26.1503 10.4951C27.1983 10.578 28.241 10.2807 29.0878 9.65763C29.5263 9.26041 29.8323 8.73804 29.9642 8.16122C30.0961 7.58441 30.0476 6.98099 29.8253 6.43264C30.0572 6.04232 30.1959 5.60373 30.2306 5.15103C30.2653 4.69833 30.195 4.24373 30.0253 3.82264ZM23.1528 1.48514C24.4702 1.12971 25.8621 1.16008 27.1628 1.57264C30.0878 2.43514 29.6628 4.18514 27.4378 4.68514C23.5028 5.58514 19.804 2.66014 23.1528 1.48514ZM25.6515 7.05889C24.617 7.09652 23.5885 6.88653 22.6515 6.44639C22.3322 6.29621 22.058 6.06471 21.8563 5.77511C21.6547 5.48551 21.5328 5.14798 21.5028 4.79639C22.6371 5.57384 23.9722 6.00641 25.347 6.0419C26.7217 6.07739 28.0773 5.71428 29.2503 4.99639C29.0378 6.55889 27.2378 7.02139 25.6003 7.05889H25.6515ZM8.92028 7.28389C10.0078 10.1076 15.1678 10.4826 17.4428 8.35888C17.8951 7.9413 18.2092 7.39566 18.3432 6.79483C18.4772 6.19401 18.4248 5.5666 18.1928 4.99639C18.8303 2.24764 13.5553 0.598885 10.8828 1.36139C8.82028 2.01139 8.19528 3.56014 8.77028 4.85889C8.60746 5.66643 8.65918 6.50256 8.92028 7.28389ZM16.6803 7.49639C15.1178 8.74639 10.5078 8.58389 9.74528 6.55889C9.68987 6.37895 9.64808 6.1951 9.62028 6.00889C10.766 6.79594 12.1169 7.23067 13.5066 7.25955C14.8963 7.28842 16.2641 6.91017 17.4415 6.17138C17.4124 6.4328 17.3296 6.6854 17.1984 6.91338C17.0672 7.14137 16.8904 7.33984 16.679 7.49639M15.329 2.78514C18.2665 3.64764 17.829 5.39764 15.604 5.91014C14.0661 6.25093 12.4574 6.0431 11.0565 5.32264C8.25653 3.63514 11.4565 1.64764 15.329 2.78514ZM2.64778 15.2426C2.74778 15.2426 6.14778 14.1551 6.24778 14.1176C6.20284 14.1564 6.16677 14.2043 6.14205 14.2583C6.11733 14.3122 6.10454 14.3708 6.10454 14.4301C6.10454 14.4895 6.11733 14.5481 6.14205 14.602C6.16677 14.6559 6.20284 14.7039 6.24778 14.7426C6.57278 15.0926 5.83528 15.9926 5.63528 16.2301C5.26028 16.8414 4.79778 17.3926 4.26028 17.8676C3.86028 18.1301 3.84778 17.7176 3.71028 17.6426C3.57278 17.5676 3.18528 16.8426 2.97278 16.7676C2.76028 16.6926 2.32278 17.0176 2.59778 17.4301C2.87278 17.8426 3.14778 18.1676 3.47278 18.5914C5.67278 22.7776 5.86028 23.3264 6.47278 23.9139C6.63127 24.0819 6.82642 24.2111 7.04302 24.2913C7.25962 24.3715 7.49183 24.4006 7.72153 24.3764C9.63403 24.2639 25.0515 19.1914 27.4003 18.1289C27.5703 18.065 27.7244 17.9648 27.8518 17.8352C27.9791 17.7057 28.0767 17.55 28.1378 17.3789C28.3253 16.2164 22.1778 9.70764 20.2665 9.47014C19.0165 9.32014 5.89653 13.1189 2.62278 14.4676C2.5532 14.5069 2.49571 14.5645 2.45655 14.6342C2.41739 14.7038 2.39804 14.7828 2.40062 14.8627C2.40319 14.9426 2.42759 15.0202 2.47116 15.0872C2.51473 15.1542 2.57582 15.2079 2.64778 15.2426ZM23.1403 18.1801C23.7344 17.1904 24.4806 16.3003 25.3515 15.5426C25.7665 15.9614 26.119 16.4364 26.4015 16.9551C25.5015 17.3301 24.0653 17.8426 23.1403 18.1801ZM13.0053 12.2939C13.1178 12.2939 19.5403 10.6439 20.0903 10.7189C21.0403 10.8564 23.8378 13.9314 24.5378 14.6564C22.6253 15.5426 21.839 17.6164 22.189 18.5039C21.0765 18.9039 12.4178 21.9276 10.444 22.5901C9.85653 19.8151 5.29528 19.8776 5.79528 21.0026C5.81746 21.0794 5.86619 21.1459 5.93278 21.1901C5.93278 21.1901 6.72028 21.2651 7.02028 21.4026C7.96153 21.6876 8.82028 22.1989 9.52028 22.8901C8.83338 23.1472 8.11392 23.3071 7.38278 23.3651C6.88278 23.2401 6.48278 22.3776 4.40778 18.7151C6.99528 18.2164 8.15778 14.9676 6.75778 14.0801C6.64528 13.9426 5.58278 14.2176 13.0053 12.2939Z" fill="black" style="fill:black;fill-opacity:1;"/>
<path d="M12.2933 16.6546C12.8308 17.4421 13.8558 17.2796 14.7933 17.1421C16.3045 16.9046 16.392 17.5671 15.0933 18.0046C14.6916 18.144 14.2684 18.2117 13.8433 18.2046C13.7856 18.1949 13.7266 18.1971 13.6699 18.2111C13.6131 18.2251 13.5599 18.2506 13.5134 18.286C13.4669 18.3214 13.4281 18.3659 13.3995 18.4169C13.3709 18.4679 13.3531 18.5242 13.3471 18.5823C13.3411 18.6404 13.3471 18.6992 13.3647 18.7549C13.3823 18.8106 13.4111 18.8622 13.4494 18.9063C13.4877 18.9505 13.5347 18.9863 13.5874 19.0116C13.6401 19.0368 13.6974 19.0511 13.7558 19.0533C14.3395 19.1446 14.9358 19.1108 15.5058 18.9533C15.5058 19.3658 16.517 20.0908 16.867 19.8783C17.217 19.6658 16.867 18.5533 16.867 18.4533V18.3658C18.017 17.4158 17.2045 15.9783 15.967 15.7033C15.1313 15.677 14.2948 15.723 13.467 15.8408C13.1295 15.4546 12.3808 14.8296 15.1045 15.0421C15.1538 15.0495 15.204 15.0471 15.2523 15.035C15.3006 15.023 15.3461 15.0016 15.3862 14.972C15.4262 14.9424 15.46 14.9052 15.4857 14.8625C15.5114 14.8199 15.5284 14.7726 15.5358 14.7233C15.5432 14.6741 15.5408 14.6239 15.5288 14.5755C15.5167 14.5272 15.4953 14.4817 15.4657 14.4417C15.4361 14.4016 15.3989 14.3678 15.3562 14.3421C15.3136 14.3165 15.2663 14.2995 15.217 14.2921C14.7373 14.1775 14.2474 14.1105 13.7545 14.0921C13.492 13.4046 12.5058 12.9421 12.1933 13.1171C11.8808 13.2921 12.1933 14.2421 12.3683 14.5171C12.1517 14.7355 11.9965 15.0071 11.9183 15.3046C11.7558 15.7421 12.0558 16.2421 12.2933 16.6546ZM17.0295 12.5808C17.6727 13.2233 18.4696 13.6903 19.3444 13.9376C20.2192 14.1848 21.1427 14.204 22.027 13.9933C22.0828 13.9933 22.1381 13.9823 22.1897 13.961C22.2412 13.9396 22.2881 13.9083 22.3275 13.8688C22.367 13.8294 22.3983 13.7825 22.4197 13.731C22.441 13.6794 22.452 13.6241 22.452 13.5683C22.452 13.5125 22.441 13.4572 22.4197 13.4057C22.3983 13.3541 22.367 13.3073 22.3275 13.2678C22.2881 13.2283 22.2412 13.197 22.1897 13.1757C22.1381 13.1543 22.0828 13.1433 22.027 13.1433C20.4305 12.8505 18.8801 12.3461 17.417 11.6433C17.0045 11.3933 16.1545 12.0558 17.0295 12.5808Z" fill="black" style="fill:black;fill-opacity:1;"/>
<path d="M4.48464 24.576C5.03089 25.391 5.69714 26.1198 6.45964 26.7385C8.95589 28.1248 25.1996 21.6135 27.8871 20.576C27.9797 20.5259 28.0511 20.4441 28.0882 20.3456C28.1253 20.2471 28.1257 20.1385 28.0892 20.0398C28.0528 19.941 27.9819 19.8587 27.8897 19.808C27.7975 19.7573 27.6901 19.7415 27.5871 19.7635C26.3371 20.226 8.24589 26.2248 7.03339 25.6248C6.40839 25.1285 5.84589 24.5573 5.35839 23.9248C4.03339 22.2498 2.69714 19.0523 2.06089 19.1273C2.00409 19.129 1.94841 19.1436 1.89808 19.17C1.84775 19.1964 1.80408 19.2339 1.77037 19.2797C1.73666 19.3254 1.71378 19.3782 1.70348 19.4341C1.69318 19.49 1.69571 19.5475 1.71089 19.6023C2.55094 21.3055 3.47671 22.9664 4.48464 24.576Z" fill="black" style="fill:black;fill-opacity:1;"/>
<path d="M28.0002 22.5779C26.6127 23.0779 7.72143 29.2867 6.32143 28.6754C5.66725 28.187 5.07534 27.6203 4.55893 26.9879C3.23643 25.4129 2.12518 23.1142 1.48768 22.4029C1.20018 22.0779 0.675178 22.2529 0.775178 22.7154C0.775178 22.9404 1.33768 23.4904 1.65018 24.1029C1.81268 24.3904 1.93768 24.7017 2.07518 25.0017C2.81409 26.4878 3.77465 27.853 4.92393 29.0504C5.15376 29.3902 5.47547 29.6575 5.8515 29.8213C6.22754 29.9851 6.6424 30.0385 7.04768 29.9754C12.0452 29.6879 23.6789 25.1754 28.2889 23.3892C28.3786 23.3386 28.4475 23.2581 28.4837 23.1617C28.5198 23.0653 28.5208 22.9592 28.4864 22.8622C28.4521 22.7651 28.3846 22.6833 28.2959 22.6311C28.2072 22.5789 28.1029 22.5596 28.0014 22.5767" fill="black" style="fill:black;fill-opacity:1;"/>
</g>
<defs>
<clipPath id="clip0_7814_6757">
<rect width="30" height="30" fill="white" style="fill:white;fill-opacity:1;" transform="translate(0.5)"/>
</clipPath>
</defs>
</svg>
